<svg xmlns="http://www.w3.org/2000/svg" width="760" height="460">
<rect width="100%" height="100%" fill="white"/>
<text x="380.0" y="24" text-anchor="middle" font-family="sans-serif" font-size="16">Newton residual convergence</text>
<line x1="82" y1="38" x2="82" y2="392" stroke="black"/>
<line x1="82" y1="392" x2="732" y2="392" stroke="black"/>
<text x="407.0" y="442" text-anchor="middle" font-family="sans-serif" font-size="13">accepted Newton iteration</text>
<text x="18" y="215.0" text-anchor="middle" transform="rotate(-90 18 215.0)" font-family="sans-serif" font-size="13">free residual norm</text>
<text x="82.00" y="414" text-anchor="middle" font-family="monospace" font-size="11">0</text>
<text x="212.00" y="414" text-anchor="middle" font-family="monospace" font-size="11">1.6</text>
<text x="342.00" y="414" text-anchor="middle" font-family="monospace" font-size="11">3.2</text>
<text x="472.00" y="414" text-anchor="middle" font-family="monospace" font-size="11">4.8</text>
<text x="602.00" y="414" text-anchor="middle" font-family="monospace" font-size="11">6.4</text>
<text x="732.00" y="414" text-anchor="middle" font-family="monospace" font-size="11">8</text>
<line x1="82" y1="392.00" x2="732" y2="392.00" stroke="#dddddd"/>
<text x="72" y="396.00" text-anchor="end" font-family="monospace" font-size="11">1e-15</text>
<line x1="82" y1="333.00" x2="732" y2="333.00" stroke="#dddddd"/>
<text x="72" y="337.00" text-anchor="end" font-family="monospace" font-size="11">1e-12</text>
<line x1="82" y1="274.00" x2="732" y2="274.00" stroke="#dddddd"/>
<text x="72" y="278.00" text-anchor="end" font-family="monospace" font-size="11">1e-9</text>
<line x1="82" y1="215.00" x2="732" y2="215.00" stroke="#dddddd"/>
<text x="72" y="219.00" text-anchor="end" font-family="monospace" font-size="11">1e-6</text>
<line x1="82" y1="156.00" x2="732" y2="156.00" stroke="#dddddd"/>
<text x="72" y="160.00" text-anchor="end" font-family="monospace" font-size="11">1e-3</text>
<line x1="82" y1="97.00" x2="732" y2="97.00" stroke="#ddddddd"/>
<text x="72" y="101.00" text-anchor="end" font-family="monospace" font-size="11">1e0</text>
<line x1="82" y1="38.00" x2="732" y2="38.00" stroke="#dddddd"/>
<text x="72" y="42.00" text-anchor="end" font-family="monospace" font-size="11">1e3</text>
<polyline points="82.00,62.41 163.25,63.21 244.50,79.74 325.75,83.96 407.00,85.79 488.25,98.99 569.50,153.86 650.75,248.80 732.00,367.59" fill="none" stroke="black" stroke-width="2"/>
<text x="724" y="56" text-anchor="end" font-family="sans-serif" font-size="12">residual</text>
</svg>
